<?xml version="1.0" encoding="UTF-8" standalone="no"?>
<!-- Created with Inkscape (http://www.inkscape.org/) -->

<svg
   xmlns:dc="http://purl.org/dc/elements/1.1/"
   xmlns:cc="http://creativecommons.org/ns#"
   xmlns:rdf="http://www.w3.org/1999/02/22-rdf-syntax-ns#"
   xmlns:svg="http://www.w3.org/2000/svg"
   xmlns="http://www.w3.org/2000/svg"
   xmlns:sodipodi="http://sodipodi.sourceforge.net/DTD/sodipodi-0.dtd"
   xmlns:inkscape="http://www.inkscape.org/namespaces/inkscape"
   width="720"
   height="160"
   viewBox="0 0 190.50003 42.333333"
   version="1.1"
   id="svg8"
   inkscape:version="0.92.1 r15371"
   sodipodi:docname="inkscape-logo-source.svg">
  <defs
     id="defs2" />
  <sodipodi:namedview
     id="base"
     pagecolor="#ffffff"
     bordercolor="#666666"
     borderopacity="1.0"
     inkscape:pageopacity="0.0"
     inkscape:pageshadow="2"
     inkscape:zoom="1.4"
     inkscape:cx="283.49923"
     inkscape:cy="120.15494"
     inkscape:document-units="px"
     inkscape:current-layer="layer1"
     showgrid="false"
     inkscape:snap-text-baseline="false"
     inkscape:snap-bbox="false"
     units="px"
     fit-margin-left="3"
     fit-margin-top="3"
     fit-margin-right="3"
     fit-margin-bottom="3"
     inkscape:window-width="1920"
     inkscape:window-height="1014"
     inkscape:window-x="0"
     inkscape:window-y="27"
     inkscape:window-maximized="1" />
  <metadata
     id="metadata5">
    <rdf:RDF>
      <cc:Work
         rdf:about="">
        <dc:format>image/svg+xml</dc:format>
        <dc:type
           rdf:resource="http://purl.org/dc/dcmitype/StillImage" />
        <dc:title></dc:title>
      </cc:Work>
    </rdf:RDF>
  </metadata>
  <g
     inkscape:label="Layer 1"
     inkscape:groupmode="layer"
     id="layer1"
     transform="translate(-22.800137,-35.321638)">
    <flowRoot
       xml:space="preserve"
       id="flowRoot4485"
       style="font-style:normal;font-weight:normal;font-size:40px;line-height:125%;font-family:Sans;letter-spacing:0px;word-spacing:0px;fill:#000000;fill-opacity:1;stroke:none;stroke-width:1px;stroke-linecap:butt;stroke-linejoin:miter;stroke-opacity:1"
       transform="matrix(0.28227847,0,0,0.28227847,-2.1171393,-4.6112556)"><flowRegion
         id="flowRegion4487"><rect
           id="rect4489"
           width="365.71429"
           height="182.85715"
           x="200"
           y="176.8054" /></flowRegion><flowPara
         id="flowPara4491"></flowPara></flowRoot>    <g
       aria-label="FEEDSUBS"
       style="font-style:normal;font-variant:normal;font-weight:800;font-stretch:normal;font-size:25.76241684px;line-height:125%;font-family:Lato;-inkscape-font-specification:'Lato, Ultra-Bold';font-variant-ligatures:normal;font-variant-caps:normal;font-variant-numeric:normal;font-feature-settings:normal;text-align:start;letter-spacing:0px;word-spacing:0px;writing-mode:lr-tb;text-anchor:start;fill:#000000;fill-opacity:1;stroke:none;stroke-width:0.48304534px;stroke-linecap:butt;stroke-linejoin:miter;stroke-opacity:1"
       id="text4495"
       transform="matrix(1.1647246,0,0,1.2927942,-11.615251,-17.469442)">
      <path
         d="m 75.302166,51.611636 v 3.027084 h -8.012111 v 5.165364 h 6.723991 v 3.039965 h -6.723991 v 7.45822 H 63.39993 V 51.611636 Z"
         style="stroke-width:0.48304534px"
         id="path6131"
         inkscape:connector-curvature="0" />
      <path
         d="m 89.894161,51.611636 v 3.027084 h -8.012112 v 4.80469 h 6.234505 v 2.924035 h -6.234505 v 4.90774 h 8.012112 v 3.027084 H 77.991924 V 51.611636 Z"
         style="stroke-width:0.48304534px"
         id="path6133"
         inkscape:connector-curvature="0" />
      <path
         d="m 104.68742,51.611636 v 3.027084 h -8.012108 v 4.80469 h 6.234508 v 2.924035 h -6.234508 v 4.90774 h 8.012108 v 3.027084 H 92.785187 V 51.611636 Z"
         style="stroke-width:0.48304534px"
         id="path6135"
         inkscape:connector-curvature="0" />
      <path
         d="m 124.3369,60.950512 q 0,2.048112 -0.69558,3.774194 -0.68271,1.7132 -1.94507,2.949796 -1.24947,1.236596 -3.0142,1.932182 -1.76472,0.695585 -3.91589,0.695585 h -7.18771 V 51.611636 h 7.18771 q 2.15117,0 3.91589,0.695585 1.76473,0.695585 3.0142,1.945062 1.26236,1.236596 1.94507,2.949797 0.69558,1.713201 0.69558,3.748432 z m -3.96741,0 q 0,-1.468458 -0.38644,-2.640648 -0.38643,-1.17219 -1.10778,-1.983706 -0.72135,-0.811516 -1.76473,-1.249477 -1.03049,-0.437961 -2.34438,-0.437961 h -3.29759 v 12.636465 h 3.29759 q 1.31389,0 2.34438,-0.42508 1.04338,-0.437961 1.76473,-1.249477 0.72135,-0.824397 1.10778,-1.996587 0.38644,-1.17219 0.38644,-2.653529 z"
         style="stroke-width:0.48304534px"
         id="path6137"
         inkscape:connector-curvature="0" />
      <path
         d="m 137.32679,55.192612 q -0.18033,0.296267 -0.37355,0.437961 -0.18034,0.128812 -0.47661,0.128812 -0.28338,0 -0.61829,-0.193218 -0.32203,-0.2061 -0.75999,-0.437962 -0.43797,-0.231861 -1.00474,-0.425079 -0.56677,-0.2061 -1.32676,-0.2061 -1.33965,0 -2.00947,0.605417 -0.66982,0.592536 -0.66982,1.558626 0,0.618298 0.36067,1.030497 0.37355,0.399317 0.96609,0.695585 0.60542,0.296268 1.36541,0.52813 0.75999,0.231861 1.55862,0.515248 0.79864,0.270505 1.55863,0.64406 0.75999,0.373556 1.35253,0.940329 0.60541,0.566773 0.96609,1.39117 0.37355,0.811516 0.37355,1.983706 0,1.27524 -0.45084,2.395905 -0.43796,1.107784 -1.27524,1.945063 -0.83728,0.824397 -2.07387,1.301002 -1.22372,0.476604 -2.78234,0.476604 -0.88881,0 -1.77761,-0.180337 -0.87592,-0.180337 -1.70032,-0.502367 -0.81152,-0.32203 -1.53286,-0.772872 -0.72135,-0.450843 -1.26236,-1.004734 l 1.13354,-1.829132 q 0.1417,-0.206099 0.37356,-0.334912 0.23186,-0.141693 0.48948,-0.141693 0.3478,0 0.73423,0.257624 0.38644,0.257625 0.88881,0.566774 0.50236,0.309149 1.1593,0.566773 0.66983,0.257624 1.59727,0.257624 1.35253,0 2.08676,-0.618298 0.74711,-0.618298 0.74711,-1.842013 0,-0.708466 -0.37355,-1.146427 -0.36068,-0.437962 -0.95321,-0.734229 -0.59254,-0.296268 -1.35253,-0.502367 -0.75999,-0.218981 -1.55863,-0.476605 -0.79863,-0.257624 -1.55862,-0.618298 -0.75999,-0.360674 -1.35253,-0.95321 -0.59254,-0.592535 -0.96609,-1.468457 -0.36067,-0.875923 -0.36067,-2.176925 0,-1.043377 0.41219,-2.022349 0.4122,-0.978972 1.21084,-1.738963 0.79863,-0.759992 1.95794,-1.223715 1.17219,-0.463724 2.67929,-0.463724 1.68744,0 3.11726,0.52813 1.44269,0.515248 2.43454,1.442695 z"
         style="stroke-width:0.48304534px"
         id="path6139"
         inkscape:connector-curvature="0" />
      <path
         d="m 149.04306,67.210779 q 0.94033,0 1.68744,-0.309149 0.74711,-0.32203 1.26236,-0.901685 0.51524,-0.579654 0.78575,-1.404051 0.2705,-0.824398 0.2705,-1.854894 V 51.611636 h 3.86437 V 62.741 q 0,1.700319 -0.55389,3.130133 -0.54102,1.416933 -1.55863,2.44743 -1.01762,1.030497 -2.47319,1.610151 -1.45558,0.579654 -3.28471,0.579654 -1.82913,0 -3.29759,-0.579654 -1.45558,-0.579654 -2.47319,-1.610151 -1.01762,-1.030497 -1.57151,-2.44743 -0.54101,-1.429814 -0.54101,-3.130133 V 51.611636 h 3.86436 V 62.741 q 0,1.030496 0.27051,1.854894 0.2705,0.824397 0.78575,1.404051 0.51525,0.579655 1.26236,0.901685 0.74711,0.309149 1.70032,0.309149 z"
         style="stroke-width:0.48304534px"
         id="path6141"
         inkscape:connector-curvature="0" />
      <path
         d="M 160.6128,70.302269 V 51.611636 h 6.63382 q 1.88066,0 3.20742,0.360673 1.33965,0.347793 2.17692,1.004735 0.85016,0.64406 1.2366,1.571507 0.38644,0.927447 0.38644,2.073875 0,0.64406 -0.19322,1.236596 -0.18034,0.592535 -0.57966,1.120665 -0.38643,0.515248 -1.00473,0.940328 -0.6183,0.42508 -1.46846,0.721348 3.73555,0.875922 3.73555,4.109105 0,1.185071 -0.46372,2.202687 -0.45084,1.017615 -1.32676,1.764725 -0.87593,0.74711 -2.16405,1.17219 -1.27524,0.412199 -2.93691,0.412199 z m 3.86436,-8.076518 v 5.11384 h 3.31047 q 0.92745,0 1.51998,-0.21898 0.60542,-0.231862 0.96609,-0.605417 0.36068,-0.373555 0.50237,-0.85016 0.14169,-0.489486 0.14169,-1.004734 0,-0.566773 -0.16745,-1.017616 -0.16746,-0.450842 -0.54101,-0.759991 -0.37356,-0.32203 -0.97897,-0.489486 -0.59254,-0.167456 -1.46846,-0.167456 z m 0,-2.627766 h 2.5376 q 0.81151,0 1.44269,-0.128812 0.63118,-0.141694 1.05626,-0.437961 0.42508,-0.296268 0.64406,-0.772873 0.23186,-0.489486 0.23186,-1.17219 0,-0.695585 -0.19321,-1.185071 -0.18034,-0.489486 -0.56678,-0.785754 -0.38643,-0.296268 -0.97897,-0.42508 -0.59253,-0.141693 -1.40405,-0.141693 h -2.76946 z"
         style="stroke-width:0.48304534px"
         id="path6143"
         inkscape:connector-curvature="0" />
      <path
         d="m 187.84528,55.192612 q -0.18033,0.296267 -0.37355,0.437961 -0.18034,0.128812 -0.47661,0.128812 -0.28338,0 -0.61829,-0.193218 -0.32203,-0.2061 -0.75999,-0.437962 -0.43797,-0.231861 -1.00474,-0.425079 -0.56677,-0.2061 -1.32676,-0.2061 -1.33965,0 -2.00947,0.605417 -0.66983,0.592536 -0.66983,1.558626 0,0.618298 0.36068,1.030497 0.37355,0.399317 0.96609,0.695585 0.60542,0.296268 1.36541,0.52813 0.75999,0.231861 1.55862,0.515248 0.79864,0.270505 1.55863,0.64406 0.75999,0.373556 1.35253,0.940329 0.60541,0.566773 0.96609,1.39117 0.37355,0.811516 0.37355,1.983706 0,1.27524 -0.45084,2.395905 -0.43796,1.107784 -1.27524,1.945063 -0.83728,0.824397 -2.07387,1.301002 -1.22372,0.476604 -2.78235,0.476604 -0.8888,0 -1.7776,-0.180337 -0.87592,-0.180337 -1.70032,-0.502367 -0.81152,-0.32203 -1.53287,-0.772872 -0.72134,-0.450843 -1.26235,-1.004734 l 1.13354,-1.829132 q 0.1417,-0.206099 0.37356,-0.334912 0.23186,-0.141693 0.48948,-0.141693 0.3478,0 0.73423,0.257624 0.38644,0.257625 0.88881,0.566774 0.50236,0.309149 1.1593,0.566773 0.66983,0.257624 1.59727,0.257624 1.35253,0 2.08676,-0.618298 0.74711,-0.618298 0.74711,-1.842013 0,-0.708466 -0.37355,-1.146427 -0.36068,-0.437962 -0.95321,-0.734229 -0.59254,-0.296268 -1.35253,-0.502367 -0.75999,-0.218981 -1.55863,-0.476605 -0.79863,-0.257624 -1.55862,-0.618298 -0.75999,-0.360674 -1.35253,-0.95321 -0.59254,-0.592535 -0.96609,-1.468457 -0.36067,-0.875923 -0.36067,-2.176925 0,-1.043377 0.41219,-2.022349 0.4122,-0.978972 1.21084,-1.738963 0.79863,-0.759992 1.95794,-1.223715 1.17219,-0.463724 2.67929,-0.463724 1.68744,0 3.11726,0.52813 1.44269,0.515248 2.43454,1.442695 z"
         style="stroke-width:0.48304534px"
         id="path6145"
         inkscape:connector-curvature="0" />
    </g>
    <circle
       r="13.033278"
       cy="50.204258"
       cx="37.477489"
       id="circle4541"
       style="fill:none;fill-opacity:1;stroke:#df691a;stroke-width:1.68931198;stroke-linecap:round;stroke-miterlimit:4;stroke-dasharray:none;stroke-dashoffset:0;stroke-opacity:1;paint-order:stroke fill markers" />
    <circle
       style="fill:none;fill-opacity:1;stroke:#df691a;stroke-width:1.94423127;stroke-linecap:round;stroke-miterlimit:4;stroke-dasharray:none;stroke-dashoffset:0;stroke-opacity:1;paint-order:stroke fill markers"
       id="circle4543"
       cx="37.477489"
       cy="50.204258"
       r="9.583744" />
    <path
       style="fill:#df691a;fill-opacity:1;stroke:#df691a;stroke-width:1.45049953;stroke-linecap:round;stroke-linejoin:round;stroke-miterlimit:4;stroke-dasharray:none;stroke-dashoffset:0;stroke-opacity:1;paint-order:stroke fill markers"
       d="m 37.47739,45.71054 a 4.7640692,4.7640692 0 0 0 -4.763917,4.76427 4.7640692,4.7640692 0 0 0 3.064456,4.444586 C 32.97661,62.433473 27.809334,75.521655 27.177103,76.46494 28.348074,76.009168 46.610509,76.136503 47.778031,76.608588 47.150006,75.654165 42.036243,62.419629 39.287406,54.877852 A 4.7640692,4.7640692 0 0 0 42.24131,50.47481 4.7640692,4.7640692 0 0 0 37.47739,45.71054 Z m 10.300641,30.898048 c 0.03249,0.04937 0.05629,0.07472 0.06373,0.05562 0.0073,-0.01908 -0.01898,-0.03753 -0.06373,-0.05562 z M 27.177103,76.46494 c -0.0449,0.01747 -0.0714,0.03537 -0.06408,0.05457 0.0072,0.01918 0.03127,-0.0055 0.06408,-0.05457 z"
       id="path6041"
       inkscape:connector-curvature="0" />
  </g>
</svg>
