<?xml version="1.0" encoding="UTF-8" standalone="no"?>
<!-- Created with Inkscape (http://www.inkscape.org/) -->
<svg xmlns:rdf="http://www.w3.org/1999/02/22-rdf-syntax-ns#" xmlns="http://www.w3.org/2000/svg" height="160" width="720" version="1.1" xmlns:cc="http://creativecommons.org/ns#" xmlns:dc="http://purl.org/dc/elements/1.1/" viewBox="0 0 190.50003 42.333333">
 <metadata>
  <rdf:RDF>
   <cc:Work rdf:about="">
    <dc:format>image/svg+xml</dc:format>
    <dc:type rdf:resource="http://purl.org/dc/dcmitype/StillImage"/>
    <dc:title/>
   </cc:Work>
  </rdf:RDF>
 </metadata>
 <g transform="translate(-22.8 -35.322)">
  <flowRoot style="word-spacing:0px;letter-spacing:0px" xml:space="preserve" transform="matrix(.28228 0 0 .28228 -2.1171 -4.6113)" line-height="125%" font-size="40px" font-family="Sans" fill="#000000"><flowRegion><rect y="176.81" width="365.71" x="200" height="182.86"/></flowRegion><flowPara/></flowRoot>
  <g aria-label="FEEDSUBS" style="font-variant-ligatures:normal;font-variant-numeric:normal;font-variant-caps:normal;font-feature-settings:normal" transform="matrix(1.1647 0 0 1.2928 -11.615 -17.469)" stroke-width=".48305px">
   <path d="m75.302 51.612v3.0271h-8.0121v5.1654h6.724v3.04h-6.724v7.4582h-3.89v-18.69z"/>
   <path d="m89.894 51.612v3.0271h-8.0121v4.8047h6.2345v2.924h-6.2345v4.9077h8.0121v3.0271h-11.902v-18.691z"/>
   <path d="m104.69 51.612v3.0271h-8.0121v4.8047h6.2345v2.924h-6.2345v4.9077h8.0121v3.0271h-11.905v-18.691z"/>
   <path d="m124.34 60.951q0 2.0481-0.69558 3.7742-0.68271 1.7132-1.9451 2.9498-1.2495 1.2366-3.0142 1.9322-1.7647 0.69558-3.9159 0.69558h-7.1877v-18.691h7.1877q2.1512 0 3.9159 0.69558t3.0142 1.9451q1.2624 1.2366 1.9451 2.9498 0.69558 1.7132 0.69558 3.7484zm-3.9674 0q0-1.4685-0.38644-2.6406-0.38643-1.1722-1.1078-1.9837-0.72135-0.81152-1.7647-1.2495-1.0305-0.43796-2.3444-0.43796h-3.2976v12.636h3.2976q1.3139 0 2.3444-0.42508 1.0434-0.43796 1.7647-1.2495 0.72135-0.8244 1.1078-1.9966 0.38644-1.1722 0.38644-2.6535z"/>
   <path d="m137.33 55.193q-0.18033 0.29627-0.37355 0.43796-0.18034 0.12881-0.47661 0.12881-0.28338 0-0.61829-0.19322-0.32203-0.2061-0.75999-0.43796-0.43797-0.23186-1.0047-0.42508-0.56677-0.2061-1.3268-0.2061-1.3396 0-2.0095 0.60542-0.66982 0.59254-0.66982 1.5586 0 0.6183 0.36067 1.0305 0.37355 0.39932 0.96609 0.69558 0.60542 0.29627 1.3654 0.52813 0.75999 0.23186 1.5586 0.51525 0.79864 0.2705 1.5586 0.64406 0.75999 0.37356 1.3525 0.94033 0.60541 0.56677 0.96609 1.3912 0.37355 0.81152 0.37355 1.9837 0 1.2752-0.45084 2.3959-0.43796 1.1078-1.2752 1.9451-0.83728 0.8244-2.0739 1.301-1.2237 0.4766-2.7823 0.4766-0.88881 0-1.7776-0.18034-0.87592-0.18034-1.7003-0.50237-0.81152-0.32203-1.5329-0.77287-0.72135-0.45084-1.2624-1.0047l1.1335-1.8291q0.1417-0.2061 0.37356-0.33491 0.23186-0.14169 0.48948-0.14169 0.3478 0 0.73423 0.25762 0.38644 0.25762 0.88881 0.56677 0.50236 0.30915 1.1593 0.56677 0.66983 0.25762 1.5973 0.25762 1.3525 0 2.0868-0.6183 0.74711-0.6183 0.74711-1.842 0-0.70847-0.37355-1.1464-0.36068-0.43796-0.95321-0.73423-0.59254-0.29627-1.3525-0.50237-0.75999-0.21898-1.5586-0.4766-0.79863-0.25762-1.5586-0.6183-0.75999-0.36067-1.3525-0.95321-0.59254-0.59254-0.96609-1.4685-0.36067-0.87592-0.36067-2.1769 0-1.0434 0.41219-2.0223 0.4122-0.97897 1.2108-1.739 0.79863-0.75999 1.9579-1.2237 1.1722-0.46372 2.6793-0.46372 1.6874 0 3.1173 0.52813 1.4427 0.51525 2.4345 1.4427z"/>
   <path d="m149.04 67.211q0.94033 0 1.6874-0.30915 0.74711-0.32203 1.2624-0.90168 0.51524-0.57965 0.78575-1.4041 0.2705-0.8244 0.2705-1.8549v-11.129h3.8644v11.129q0 1.7003-0.55389 3.1301-0.54102 1.4169-1.5586 2.4474t-2.4732 1.6102q-1.4556 0.57965-3.2847 0.57965t-3.2976-0.57965q-1.4556-0.57965-2.4732-1.6102-1.0176-1.0305-1.5715-2.4474-0.54101-1.4298-0.54101-3.1301v-11.129h3.8644v11.129q0 1.0305 0.27051 1.8549 0.2705 0.8244 0.78575 1.4041 0.51525 0.57966 1.2624 0.90168 0.74711 0.30915 1.7003 0.30915z"/>
   <path d="m160.61 70.302v-18.69h6.6338q1.8807 0 3.2074 0.36067 1.3396 0.34779 2.1769 1.0047 0.85016 0.64406 1.2366 1.5715 0.38644 0.92745 0.38644 2.0739 0 0.64406-0.19322 1.2366-0.18034 0.59254-0.57966 1.1207-0.38643 0.51525-1.0047 0.94033-0.6183 0.42508-1.4685 0.72135 3.7356 0.87592 3.7356 4.1091 0 1.1851-0.46372 2.2027-0.45084 1.0176-1.3268 1.7647-0.87593 0.74711-2.164 1.1722-1.2752 0.4122-2.9369 0.4122zm3.8644-8.0765v5.1138h3.3105q0.92745 0 1.52-0.21898 0.60542-0.23186 0.96609-0.60542 0.36068-0.37356 0.50237-0.85016 0.14169-0.48949 0.14169-1.0047 0-0.56677-0.16745-1.0176-0.16746-0.45084-0.54101-0.75999-0.37356-0.32203-0.97897-0.48949-0.59254-0.16746-1.4685-0.16746zm0-2.6278h2.5376q0.81151 0 1.4427-0.12881 0.63118-0.14169 1.0563-0.43796 0.42508-0.29627 0.64406-0.77287 0.23186-0.48949 0.23186-1.1722 0-0.69558-0.19321-1.1851-0.18034-0.48949-0.56678-0.78575-0.38643-0.29627-0.97897-0.42508-0.59253-0.14169-1.404-0.14169h-2.7695z"/>
   <path d="m187.85 55.193q-0.18033 0.29627-0.37355 0.43796-0.18034 0.12881-0.47661 0.12881-0.28338 0-0.61829-0.19322-0.32203-0.2061-0.75999-0.43796-0.43797-0.23186-1.0047-0.42508-0.56677-0.2061-1.3268-0.2061-1.3396 0-2.0095 0.60542-0.66983 0.59254-0.66983 1.5586 0 0.6183 0.36068 1.0305 0.37355 0.39932 0.96609 0.69558 0.60542 0.29627 1.3654 0.52813 0.75999 0.23186 1.5586 0.51525 0.79864 0.2705 1.5586 0.64406 0.75999 0.37356 1.3525 0.94033 0.60541 0.56677 0.96609 1.3912 0.37355 0.81152 0.37355 1.9837 0 1.2752-0.45084 2.3959-0.43796 1.1078-1.2752 1.9451-0.83728 0.8244-2.0739 1.301-1.2237 0.4766-2.7824 0.4766-0.8888 0-1.7776-0.18034-0.87592-0.18034-1.7003-0.50237-0.81152-0.32203-1.5329-0.77287-0.72134-0.45084-1.2624-1.0047l1.1335-1.8291q0.1417-0.2061 0.37356-0.33491 0.23186-0.14169 0.48948-0.14169 0.3478 0 0.73423 0.25762 0.38644 0.25762 0.88881 0.56677 0.50236 0.30915 1.1593 0.56677 0.66983 0.25762 1.5973 0.25762 1.3525 0 2.0868-0.6183 0.74711-0.6183 0.74711-1.842 0-0.70847-0.37355-1.1464-0.36068-0.43796-0.95321-0.73423-0.59254-0.29627-1.3525-0.50237-0.75999-0.21898-1.5586-0.4766-0.79863-0.25762-1.5586-0.6183-0.75999-0.36067-1.3525-0.95321-0.59254-0.59254-0.96609-1.4685-0.36067-0.87592-0.36067-2.1769 0-1.0434 0.41219-2.0223 0.4122-0.97897 1.2108-1.739 0.79863-0.75999 1.9579-1.2237 1.1722-0.46372 2.6793-0.46372 1.6874 0 3.1173 0.52813 1.4427 0.51525 2.4345 1.4427z"/>
  </g>
  <g stroke="#df691a" stroke-linecap="round">
   <circle style="paint-order:stroke fill markers" stroke-width="1.6893" cy="50.204" cx="37.477" r="13.033" fill="none"/>
   <circle style="paint-order:stroke fill markers" cx="37.477" cy="50.204" r="9.5837" stroke-width="1.9442" fill="none"/>
   <path stroke-linejoin="round" style="paint-order:stroke fill markers" d="m37.477 45.711a4.7641 4.7641 0 0 0 -4.7639 4.7643 4.7641 4.7641 0 0 0 3.0645 4.4446c-2.801 7.513-7.969 20.602-8.601 21.545 1.171-0.456 19.434-0.328 20.601 0.144-0.628-0.955-5.742-14.189-8.491-21.731a4.7641 4.7641 0 0 0 2.954 -4.403 4.7641 4.7641 0 0 0 -4.764 -4.764zm10.301 30.898c0.03249 0.04937 0.05629 0.07472 0.06373 0.05562 0.0073-0.01908-0.01898-0.03753-0.06373-0.05562zm-20.601-0.144c-0.0449 0.01747-0.0714 0.03537-0.06408 0.05457 0.0072 0.01918 0.03127-0.0055 0.06408-0.05457z" stroke-width="1.4505" fill="#df691a"/>
  </g>
 </g>
</svg>
